<svg xmlns="http://www.w3.org/2000/svg" viewBox="0 -2.0207 108.1659 74.9705">
  <g>
    <text
      x="0"
      y="36.3"
      fill="#a9bee3"
      font-family='CSMaguire-RegularDemo, "CS Maguire Demo"'
      font-size="42.7"
    >
      studio
    </text>
    <text
      x="34.65"
      y="62.22"
      fill="#a9bee3"
      font-family='CSMaguire-RegularDemo, "CS Maguire Demo"'
      font-size="42.7"
    >
      mua
    </text>
    <path
      fill="#f2c8db"
      d="M2.07,49.66c-1.8,5.12,1.25,10.97,6.58,12.23,5.67,1.34,9.92-2.55,12.37-7.25,1.2-2.3,2.78-5.03,2.32-7.71s-2.96-4.4-5.59-3.52c-6.41,2.15-2.76,11.06.35,14.46,2.15,2.35,5.48,3.74,8.65,2.99,2.92-.69,5.02-3.23,5.24-6.18.18-2.41-3.57-2.4-3.75,0-.1,1.29-1.28,2.31-2.49,2.57-1.59.33-3.27-.39-4.44-1.46-1.3-1.19-2.18-2.79-2.78-4.43-.41-1.14-1.3-3.65.29-4.35,1.25-.55.75,1.74.51,2.39-.57,1.54-1.36,3.08-2.18,4.49-1.51,2.58-3.8,4.94-7.05,4.49-3.71-.51-5.62-4.31-4.42-7.71.8-2.28-2.82-3.26-3.62-1h0Z"
    />
  </g>
</svg>
