<svg
  xmlns="http://www.w3.org/2000/svg"
  id="Livello_1"
  data-name="Livello 1"
  viewBox="0 0 139.03 70.61"
>
  <defs>
    <style>
      .cls-1x1 {
        fill: #a9bee3;
      }

      .cls-2x2 {
        fill: #f2c8db;
      }
    </style>
  </defs>
  <g>
    <path
      class="cls-1x1"
      d="M.41,17.96c0-4.56,5.2-7.77,11.69-7.77,8.04,0,12.7,4.93,12.17,12.06h-8.04c0-2.2-1.5-3.75-4.45-3.75-1.88,0-3,.64-3,1.77,0,4.34,15.97,1.66,15.97,9.97,0,4.56-4.77,7.83-11.74,7.83C5.13,38.06-.5,32.97.04,26h8.04c0,2.2,1.61,3.75,4.56,3.75,2.2,0,4.02-.91,4.02-1.93,0-3-16.24-1.5-16.24-9.86Z"
    />
    <path
      class="cls-1x1"
      d="M28.82,10.72v-5.9h8.58v5.9h3.54v7.5h-3.54v7.56c0,2.41.8,3.43,2.73,3.43h1.66v8.31h-1.66c-6.86,0-11.31-4.61-11.31-11.69v-7.61h-1.72v-7.5h1.72Z"
    />
    <path
      class="cls-1x1"
      d="M44.74,10.72h8.58v15.06c0,2.47,1.45,3.97,3.27,3.97s3.27-1.5,3.27-3.97v-15.06h8.58v15.65c0,7.08-4.99,11.69-11.85,11.69s-11.85-4.61-11.85-11.69v-15.65Z"
    />
    <path
      class="cls-1x1"
      d="M88.27,12.97V0h8.58v37.52h-8.58v-2.04c-1.61,1.72-3.59,2.57-6.33,2.57-6.65,0-10.56-5.15-10.56-13.94s3.81-13.94,10.56-13.94c3,0,4.66,1.02,6.33,2.79ZM88.27,24.23c0-3.48-1.5-5.74-4.13-5.74s-4.18,2.25-4.18,5.74,1.45,5.52,4.18,5.52,4.13-2.09,4.13-5.52Z"
    />
    <path
      class="cls-1x1"
      d="M104.57.16c3,0,4.98,1.88,4.98,4.72s-1.98,4.72-4.98,4.72-5.04-1.88-5.04-4.72,1.98-4.72,5.04-4.72ZM100.22,10.72h8.58v26.8h-8.58V10.72Z"
    />
    <path
      class="cls-1x1"
      d="M125.53,10.19c7.93,0,13.51,5.74,13.51,13.94s-5.58,13.94-13.51,13.94-13.56-5.74-13.56-13.94,5.58-13.94,13.56-13.94ZM125.53,29.75c2.84,0,4.88-2.14,4.88-5.63s-2.04-5.63-4.88-5.63-4.93,2.14-4.93,5.63,2.04,5.63,4.93,5.63Z"
    />
  </g>
  <g>
    <path
      class="cls-1x1"
      d="M43.75,70.07v-15.12c0-7.18,5.09-12.22,11.85-12.22,2.95,0,5.52.96,7.56,2.57,2.04-1.61,4.61-2.57,7.56-2.57,6.75,0,11.85,5.04,11.85,12.22v15.12h-8.58v-15.06c0-2.47-1.45-3.97-3.27-3.97s-3.27,1.5-3.27,3.97v15.06h-8.58v-15.06c0-2.47-1.45-3.97-3.27-3.97s-3.27,1.5-3.27,3.97v15.06h-8.58Z"
    />
    <path
      class="cls-1x1"
      d="M85.78,43.27h8.58v15.06c0,2.47,1.45,3.97,3.27,3.97s3.27-1.5,3.27-3.97v-15.06h8.58v15.65c0,7.08-4.98,11.69-11.85,11.69s-11.85-4.61-11.85-11.69v-15.65Z"
    />
    <path
      class="cls-1x1"
      d="M129.3,45.52v-2.25h8.58v26.8h-8.58v-2.04c-1.61,1.72-3.59,2.57-6.33,2.57-6.65,0-10.56-5.15-10.56-13.94s3.81-13.94,10.56-13.94c3,0,4.66,1.02,6.33,2.79ZM129.3,56.78c0-3.48-1.5-5.74-4.13-5.74s-4.18,2.25-4.18,5.74,1.45,5.52,4.18,5.52,4.13-2.09,4.13-5.52Z"
    />
  </g>
  <path
    class="cls-2x2"
    d="M34.1,60.58c-.11,1.63-1.63,2.92-3.16,3.23-2.04.42-4.18-.56-5.65-1.94-1.57-1.48-2.65-3.45-3.38-5.46-.54-1.48-1.54-4.25.18-5.35,1.49-.95,1.28,1.5.99,2.42-.64,2.05-1.75,4.09-2.81,5.95-1.92,3.34-4.87,6.45-9.08,5.77-4.57-.74-6.92-5.43-5.41-9.65.43-1.2-.48-2.58-1.64-2.9-1.3-.36-2.47.44-2.9,1.64-2.29,6.4,1.55,13.7,8.17,15.33,3.16.78,6.58.29,9.32-1.5s4.65-4.47,6.16-7.31,3.6-6.42,3.07-9.81-3.85-5.81-7.26-4.47c-7.69,3.04-3.28,13.79.7,18.1,2.65,2.87,6.71,4.6,10.62,3.77s6.53-4.02,6.79-7.81c.08-1.27-1.14-2.35-2.35-2.35-1.34,0-2.27,1.08-2.35,2.35h0Z"
  />
</svg>
